<svg width="141" height="24" viewBox="0 0 141 24" fill="none" xmlns="http://www.w3.org/2000/svg">
<path d="M2 10.5C1.17157 10.5 0.5 11.1716 0.5 12C0.5 12.8284 1.17157 13.5 2 13.5V10.5ZM140.061 13.0607C140.646 12.4749 140.646 11.5251 140.061 10.9393L130.515 1.3934C129.929 0.807611 128.979 0.807611 128.393 1.3934C127.808 1.97919 127.808 2.92893 128.393 3.51472L136.879 12L128.393 20.4853C127.808 21.0711 127.808 22.0208 128.393 22.6066C128.979 23.1924 129.929 23.1924 130.515 22.6066L140.061 13.0607ZM2 12V13.5H139V12V10.5H2V12Z" fill="white"/>
</svg>
