<svg width="967" height="242" viewBox="0 0 967 242" fill="none" xmlns="http://www.w3.org/2000/svg">
<path fill-rule="evenodd" clip-rule="evenodd" d="M49.043 147.213C54.7852 145.444 60.8385 148.671 62.609 154.383C64.3795 160.119 61.1495 166.165 55.4312 167.934C38.731 173.048 27.5338 182.943 23.8253 192.24C22.8443 194.726 22.5094 196.996 22.8922 198.86C23.1793 200.271 24.0406 201.561 25.4522 202.589C31.5533 207.034 44.6886 208.181 66.7481 202.828C79.8116 199.649 93.8082 195.347 106.202 191.523C118.858 187.627 129.912 184.21 137.592 182.776C151.756 180.147 165.897 178.354 177.309 178.928C192.287 179.669 203.532 184.473 207.384 195.969C209.872 203.401 209.178 209.854 208.556 215.638C208.341 217.717 208.126 219.653 208.221 220.92C208.221 220.968 210.494 220.801 221.452 219.94C234.133 218.936 247.268 213.941 260.236 208.994C266.887 206.461 273.491 203.951 280.98 201.657C286.722 199.912 292.775 203.162 294.498 208.875C296.244 214.611 292.99 220.657 287.272 222.378C281.458 224.147 274.735 226.728 267.988 229.285C253.537 234.782 238.942 240.351 223.151 241.594C194.273 243.864 187.573 235.714 186.545 222.593C186.305 219.51 186.616 216.522 186.951 213.32C187.334 209.735 187.765 205.72 186.784 202.828C186.353 201.537 182.262 200.868 176.28 200.581C166.734 200.103 154.221 201.728 141.492 204.095C135.152 205.266 124.625 208.516 112.566 212.244C99.9571 216.14 85.7213 220.514 71.8443 223.884C42.7984 230.934 23.4903 227.947 12.6759 220.06C6.59871 215.638 2.98592 209.854 1.59822 203.33C0.306229 197.259 1.04793 190.711 3.63191 184.21C9.51766 169.535 25.7154 154.335 49.043 147.213Z" fill="url(#paint0_linear_336_516)"/>
<path d="M282.068 212.626C283.764 212.608 302.393 207.015 384.327 188.525C448.02 174.152 558.574 155.56 622.902 144.469C687.23 133.379 702.484 131.867 719.676 131.323C755.515 130.191 784.123 133.66 800.005 137.899C811.16 140.877 815.2 147.619 818.239 151.661C821.083 155.444 820.514 161.163 817.602 167.648C814.527 174.495 800.219 179.089 780.639 184.732C756.483 191.696 723.378 195.583 684.534 199.066C664.391 200.872 643.123 200.555 632.177 198.652C621.231 196.748 621.187 192.705 621.559 187.922C622.354 177.718 628.545 164.708 640.757 149.3C654.674 131.74 680.202 115.831 717.086 95.0815C739.736 82.3398 773.422 68.7304 813.222 54.9442C853.022 41.1579 898.695 28.5335 925.189 21.661C951.683 14.7885 957.614 14.0505 961.938 13.3196C966.261 12.5887 968.799 11.8874 973.983 11.137" stroke="url(#paint1_linear_336_516)" stroke-width="21.5" stroke-linecap="round"/>
<defs>
<linearGradient id="paint0_linear_336_516" x1="25.5" y1="217.5" x2="294" y2="208" gradientUnits="userSpaceOnUse">
<stop stop-color="#7D3BFF"/>
<stop offset="1" stop-color="#5221B3"/>
</linearGradient>
<linearGradient id="paint1_linear_336_516" x1="271.778" y1="216.237" x2="973.964" y2="101.59" gradientUnits="userSpaceOnUse">
<stop stop-color="#5523B8"/>
<stop offset="1" stop-color="#FF5100"/>
</linearGradient>
</defs>
</svg>
