<svg width="18" height="18" viewBox="0 0 18 18" fill="none" xmlns="http://www.w3.org/2000/svg">
<g filter="url(#filter0_i_482_32)">
<path d="M17.3 17.3C16.9134 17.6866 16.2866 17.6866 15.9 17.3L11.5658 12.9658C10.8452 12.2452 9.70053 12.2131 8.75129 12.584C8.69315 12.6067 8.63439 12.6287 8.575 12.65C7.925 12.8833 7.23333 13 6.5 13C4.68333 13 3.14583 12.3708 1.8875 11.1125C0.629167 9.85417 0 8.31667 0 6.5C0 4.68333 0.629167 3.14583 1.8875 1.8875C3.14583 0.629167 4.68333 0 6.5 0C8.31667 0 9.85417 0.629167 11.1125 1.8875C12.3708 3.14583 13 4.68333 13 6.5C13 7.23333 12.8833 7.925 12.65 8.575C12.6287 8.63439 12.6067 8.69315 12.584 8.75129C12.2131 9.70053 12.2452 10.8452 12.9658 11.5658L17.3 15.9C17.6866 16.2866 17.6866 16.9134 17.3 17.3V17.3ZM6.5 11C7.75 11 8.8125 10.5625 9.6875 9.6875C10.5625 8.8125 11 7.75 11 6.5C11 5.25 10.5625 4.1875 9.6875 3.3125C8.8125 2.4375 7.75 2 6.5 2C5.25 2 4.1875 2.4375 3.3125 3.3125C2.4375 4.1875 2 5.25 2 6.5C2 7.75 2.4375 8.8125 3.3125 9.6875C4.1875 10.5625 5.25 11 6.5 11Z" fill="white"/>
</g>
<defs>
<filter id="filter0_i_482_32" x="0" y="0" width="18.0898" height="18.0898" filterUnits="userSpaceOnUse" color-interpolation-filters="sRGB">
<feFlood flood-opacity="0" result="BackgroundImageFix"/>
<feBlend mode="normal" in="SourceGraphic" in2="BackgroundImageFix" result="shape"/>
<feColorMatrix in="SourceAlpha" type="matrix" values="0 0 0 0 0 0 0 0 0 0 0 0 0 0 0 0 0 0 127 0" result="hardAlpha"/>
<feOffset dx="0.5" dy="0.5"/>
<feGaussianBlur stdDeviation="1.25"/>
<feComposite in2="hardAlpha" operator="arithmetic" k2="-1" k3="1"/>
<feColorMatrix type="matrix" values="0 0 0 0 0 0 0 0 0 0 0 0 0 0 0 0 0 0 0.3 0"/>
<feBlend mode="normal" in2="shape" result="effect1_innerShadow_482_32"/>
</filter>
</defs>
</svg>
