<svg width="1227" height="224" viewBox="0 0 1227 224" fill="none" xmlns="http://www.w3.org/2000/svg">
<path d="M143.986 173V86.232H161.762V96.44H164.578C165.986 92.8027 168.216 90.1627 171.266 88.52C174.434 86.76 178.306 85.88 182.882 85.88H193.266V102.248H182.178C176.312 102.248 171.501 103.891 167.746 107.176C163.992 110.344 162.114 115.272 162.114 121.96V173H143.986ZM242.571 175.464C233.888 175.464 226.144 173.704 219.339 170.184C212.651 166.547 207.371 161.384 203.499 154.696C199.627 148.008 197.691 140.088 197.691 130.936V128.296C197.691 119.144 199.627 111.283 203.499 104.712C207.371 98.024 212.651 92.8613 219.339 89.224C226.144 85.5867 233.888 83.768 242.571 83.768C251.254 83.768 258.998 85.5867 265.803 89.224C272.608 92.8613 277.947 98.024 281.819 104.712C285.691 111.283 287.627 119.144 287.627 128.296V130.936C287.627 140.088 285.691 148.008 281.819 154.696C277.947 161.384 272.608 166.547 265.803 170.184C258.998 173.704 251.254 175.464 242.571 175.464ZM242.571 159.272C250.55 159.272 257.003 156.749 261.931 151.704C266.976 146.541 269.499 139.443 269.499 130.408V128.824C269.499 119.789 267.035 112.749 262.107 107.704C257.179 102.541 250.667 99.96 242.571 99.96C234.71 99.96 228.256 102.541 223.211 107.704C218.283 112.749 215.819 119.789 215.819 128.824V130.408C215.819 139.443 218.283 146.541 223.211 151.704C228.256 156.749 234.71 159.272 242.571 159.272ZM353.316 175.464C344.868 175.464 338.356 173.939 333.78 170.888C329.322 167.837 325.978 164.435 323.748 160.68H320.932V173H303.156V49.8H321.284V98.024H324.1C325.508 95.6773 327.386 93.448 329.732 91.336C332.079 89.1067 335.188 87.288 339.06 85.88C342.932 84.472 347.684 83.768 353.316 83.768C360.591 83.768 367.279 85.528 373.38 89.048C379.482 92.568 384.351 97.672 387.988 104.36C391.626 111.048 393.444 119.027 393.444 128.296V130.936C393.444 140.323 391.567 148.36 387.812 155.048C384.175 161.619 379.306 166.664 373.204 170.184C367.22 173.704 360.591 175.464 353.316 175.464ZM348.036 159.624C355.898 159.624 362.351 157.101 367.396 152.056C372.559 147.011 375.14 139.795 375.14 130.408V128.824C375.14 119.555 372.618 112.397 367.572 107.352C362.527 102.307 356.015 99.784 348.036 99.784C340.292 99.784 333.839 102.307 328.676 107.352C323.631 112.397 321.108 119.555 321.108 128.824V130.408C321.108 139.795 323.631 147.011 328.676 152.056C333.839 157.101 340.292 159.624 348.036 159.624ZM435.794 175.464C429.576 175.464 424.002 174.408 419.074 172.296C414.264 170.184 410.392 167.075 407.458 162.968C404.642 158.861 403.234 153.875 403.234 148.008C403.234 142.024 404.642 137.096 407.458 133.224C410.392 129.235 414.322 126.243 419.25 124.248C424.296 122.253 429.986 121.256 436.322 121.256H462.722V115.624C462.722 110.579 461.197 106.531 458.146 103.48C455.096 100.429 450.402 98.904 444.066 98.904C437.848 98.904 433.096 100.371 429.81 103.304C426.525 106.237 424.354 110.051 423.298 114.744L406.402 109.288C407.81 104.595 410.04 100.371 413.09 96.616C416.258 92.744 420.424 89.6347 425.586 87.288C430.749 84.9413 436.968 83.768 444.242 83.768C455.506 83.768 464.365 86.6427 470.818 92.392C477.272 98.1413 480.498 106.296 480.498 116.856V152.584C480.498 156.104 482.141 157.864 485.426 157.864H492.818V173H479.266C475.16 173 471.816 171.944 469.234 169.832C466.653 167.72 465.362 164.845 465.362 161.208V160.68H462.722C461.784 162.44 460.376 164.493 458.498 166.84C456.621 169.187 453.864 171.24 450.226 173C446.589 174.643 441.778 175.464 435.794 175.464ZM438.434 160.504C445.709 160.504 451.576 158.451 456.034 154.344C460.493 150.12 462.722 144.371 462.722 137.096V135.336H437.378C432.568 135.336 428.696 136.392 425.762 138.504C422.829 140.499 421.362 143.491 421.362 147.48C421.362 151.469 422.888 154.637 425.938 156.984C428.989 159.331 433.154 160.504 438.434 160.504Z" fill="url(#paint0_linear_1954_100)"/>
<path d="M562.872 175.464C556.653 175.464 551.08 174.408 546.152 172.296C541.341 170.184 537.469 167.075 534.536 162.968C531.72 158.861 530.312 153.875 530.312 148.008C530.312 142.024 531.72 137.096 534.536 133.224C537.469 129.235 541.4 126.243 546.328 124.248C551.373 122.253 557.064 121.256 563.4 121.256H589.8V115.624C589.8 110.579 588.274 106.531 585.224 103.48C582.173 100.429 577.48 98.904 571.144 98.904C564.925 98.904 560.173 100.371 556.888 103.304C553.602 106.237 551.432 110.051 550.376 114.744L533.48 109.288C534.888 104.595 537.117 100.371 540.168 96.616C543.336 92.744 547.501 89.6347 552.664 87.288C557.826 84.9413 564.045 83.768 571.32 83.768C582.584 83.768 591.442 86.6427 597.896 92.392C604.349 98.1413 607.576 106.296 607.576 116.856V152.584C607.576 156.104 609.218 157.864 612.504 157.864H619.896V173H606.344C602.237 173 598.893 171.944 596.312 169.832C593.73 167.72 592.44 164.845 592.44 161.208V160.68H589.8C588.861 162.44 587.453 164.493 585.576 166.84C583.698 169.187 580.941 171.24 577.304 173C573.666 174.643 568.856 175.464 562.872 175.464ZM565.512 160.504C572.786 160.504 578.653 158.451 583.112 154.344C587.57 150.12 589.8 144.371 589.8 137.096V135.336H564.456C559.645 135.336 555.773 136.392 552.84 138.504C549.906 140.499 548.44 143.491 548.44 147.48C548.44 151.469 549.965 154.637 553.016 156.984C556.066 159.331 560.232 160.504 565.512 160.504ZM618.915 130.056V127.416C618.915 118.264 620.734 110.461 624.371 104.008C628.126 97.5547 633.054 92.568 639.155 89.048C645.257 85.528 651.945 83.768 659.219 83.768C667.667 83.768 674.121 85.352 678.579 88.52C683.155 91.688 686.499 95.0907 688.611 98.728H691.427V86.232H709.027V190.776C709.027 196.056 707.443 200.28 704.275 203.448C701.225 206.616 697.001 208.2 691.603 208.2H633.171V192.36H685.971C689.374 192.36 691.075 190.6 691.075 187.08V159.448H688.259C686.969 161.56 685.15 163.731 682.803 165.96C680.457 168.189 677.347 170.008 673.475 171.416C669.721 172.824 664.969 173.528 659.219 173.528C651.945 173.528 645.198 171.827 638.979 168.424C632.878 164.904 628.009 159.917 624.371 153.464C620.734 146.893 618.915 139.091 618.915 130.056ZM664.147 157.688C672.009 157.688 678.462 155.224 683.507 150.296C688.67 145.251 691.251 138.328 691.251 129.528V127.944C691.251 118.909 688.729 111.987 683.683 107.176C678.638 102.248 672.126 99.784 664.147 99.784C656.403 99.784 649.95 102.248 644.787 107.176C639.742 111.987 637.219 118.909 637.219 127.944V129.528C637.219 138.328 639.742 145.251 644.787 150.296C649.95 155.224 656.403 157.688 664.147 157.688ZM763.174 175.464C754.374 175.464 746.688 173.645 740.118 170.008C733.547 166.253 728.384 161.032 724.63 154.344C720.992 147.539 719.174 139.677 719.174 130.76V128.648C719.174 119.613 720.992 111.752 724.63 105.064C728.267 98.2587 733.312 93.0373 739.766 89.4C746.336 85.6453 753.904 83.768 762.47 83.768C770.8 83.768 778.075 85.6453 784.294 89.4C790.63 93.0373 795.558 98.1413 799.078 104.712C802.598 111.283 804.358 118.968 804.358 127.768V134.632H737.654C737.888 142.259 740.411 148.36 745.222 152.936C750.15 157.395 756.251 159.624 763.526 159.624C770.331 159.624 775.435 158.099 778.838 155.048C782.358 151.997 785.056 148.477 786.934 144.488L801.894 152.232C800.251 155.517 797.846 158.979 794.678 162.616C791.627 166.253 787.579 169.304 782.534 171.768C777.488 174.232 771.035 175.464 763.174 175.464ZM737.83 120.728H785.878C785.408 114.157 783.062 109.053 778.838 105.416C774.614 101.661 769.099 99.784 762.294 99.784C755.488 99.784 749.915 101.661 745.574 105.416C741.35 109.053 738.768 114.157 737.83 120.728ZM813.859 173V86.232H831.635V99.256H834.451C836.093 95.736 839.027 92.4507 843.251 89.4C847.475 86.3493 853.752 84.824 862.083 84.824C868.653 84.824 874.461 86.2907 879.507 89.224C884.669 92.1573 888.717 96.3227 891.651 101.72C894.584 107 896.051 113.395 896.051 120.904V173H877.923V122.312C877.923 114.803 876.045 109.288 872.291 105.768C868.536 102.131 863.373 100.312 856.803 100.312C849.293 100.312 843.251 102.776 838.675 107.704C834.216 112.632 831.987 119.789 831.987 129.176V173H813.859ZM950.124 175.464C941.793 175.464 934.225 173.704 927.42 170.184C920.732 166.664 915.393 161.56 911.404 154.872C907.532 148.184 905.596 140.147 905.596 130.76V128.472C905.596 119.085 907.532 111.107 911.404 104.536C915.393 97.848 920.732 92.744 927.42 89.224C934.225 85.5867 941.793 83.768 950.124 83.768C958.455 83.768 965.553 85.2933 971.42 88.344C977.287 91.3947 981.98 95.4427 985.5 100.488C989.137 105.533 991.484 111.107 992.54 117.208L974.94 120.904C974.353 117.032 973.121 113.512 971.244 110.344C969.367 107.176 966.727 104.653 963.324 102.776C959.921 100.899 955.639 99.96 950.476 99.96C945.431 99.96 940.855 101.133 936.748 103.48C932.759 105.709 929.591 108.995 927.244 113.336C924.897 117.56 923.724 122.723 923.724 128.824V130.408C923.724 136.509 924.897 141.731 927.244 146.072C929.591 150.413 932.759 153.699 936.748 155.928C940.855 158.157 945.431 159.272 950.476 159.272C958.103 159.272 963.911 157.336 967.9 153.464C971.889 149.475 974.412 144.429 975.468 138.328L993.068 142.376C991.66 148.36 989.137 153.875 985.5 158.92C981.98 163.965 977.287 168.013 971.42 171.064C965.553 173.997 958.455 175.464 950.124 175.464ZM1011.69 208.2V192.36H1060.09C1063.37 192.36 1065.02 190.6 1065.02 187.08V160.328H1062.2C1061.14 162.675 1059.5 164.963 1057.27 167.192C1055.16 169.304 1052.29 171.064 1048.65 172.472C1045.01 173.88 1040.43 174.584 1034.92 174.584C1028.35 174.584 1022.48 173.117 1017.32 170.184C1012.16 167.251 1008.11 163.085 1005.18 157.688C1002.24 152.291 1000.78 145.896 1000.78 138.504V86.232H1018.9V137.096C1018.9 144.605 1020.78 150.179 1024.54 153.816C1028.29 157.336 1033.51 159.096 1040.2 159.096C1047.59 159.096 1053.52 156.632 1057.98 151.704C1062.55 146.776 1064.84 139.619 1064.84 130.232V86.232H1082.97V190.776C1082.97 196.056 1081.38 200.28 1078.22 203.448C1075.17 206.616 1070.94 208.2 1065.54 208.2H1011.69Z" fill="white"/>
<g filter="url(#filter0_ddi_1954_100)">
<path d="M143.647 173V86.232H161.423V96.44H164.239C165.647 92.8027 167.876 90.1627 170.927 88.52C174.095 86.76 177.967 85.88 182.543 85.88H192.927V102.248H181.839C175.972 102.248 171.162 103.891 167.407 107.176C163.652 110.344 161.775 115.272 161.775 121.96V173H143.647ZM242.232 175.464C233.549 175.464 225.805 173.704 219 170.184C212.312 166.547 207.032 161.384 203.16 154.696C199.288 148.008 197.352 140.088 197.352 130.936V128.296C197.352 119.144 199.288 111.283 203.16 104.712C207.032 98.024 212.312 92.8613 219 89.224C225.805 85.5867 233.549 83.768 242.232 83.768C250.914 83.768 258.658 85.5867 265.464 89.224C272.269 92.8613 277.608 98.024 281.48 104.712C285.352 111.283 287.288 119.144 287.288 128.296V130.936C287.288 140.088 285.352 148.008 281.48 154.696C277.608 161.384 272.269 166.547 265.464 170.184C258.658 173.704 250.914 175.464 242.232 175.464ZM242.232 159.272C250.21 159.272 256.664 156.749 261.592 151.704C266.637 146.541 269.16 139.443 269.16 130.408V128.824C269.16 119.789 266.696 112.749 261.768 107.704C256.84 102.541 250.328 99.96 242.232 99.96C234.37 99.96 227.917 102.541 222.872 107.704C217.944 112.749 215.48 119.789 215.48 128.824V130.408C215.48 139.443 217.944 146.541 222.872 151.704C227.917 156.749 234.37 159.272 242.232 159.272ZM352.977 175.464C344.529 175.464 338.017 173.939 333.441 170.888C328.982 167.837 325.638 164.435 323.409 160.68H320.593V173H302.817V49.8H320.945V98.024H323.761C325.169 95.6773 327.046 93.448 329.393 91.336C331.74 89.1067 334.849 87.288 338.721 85.88C342.593 84.472 347.345 83.768 352.977 83.768C360.252 83.768 366.94 85.528 373.041 89.048C379.142 92.568 384.012 97.672 387.649 104.36C391.286 111.048 393.105 119.027 393.105 128.296V130.936C393.105 140.323 391.228 148.36 387.473 155.048C383.836 161.619 378.966 166.664 372.865 170.184C366.881 173.704 360.252 175.464 352.977 175.464ZM347.697 159.624C355.558 159.624 362.012 157.101 367.057 152.056C372.22 147.011 374.801 139.795 374.801 130.408V128.824C374.801 119.555 372.278 112.397 367.233 107.352C362.188 102.307 355.676 99.784 347.697 99.784C339.953 99.784 333.5 102.307 328.337 107.352C323.292 112.397 320.769 119.555 320.769 128.824V130.408C320.769 139.795 323.292 147.011 328.337 152.056C333.5 157.101 339.953 159.624 347.697 159.624ZM435.455 175.464C429.236 175.464 423.663 174.408 418.735 172.296C413.924 170.184 410.052 167.075 407.119 162.968C404.303 158.861 402.895 153.875 402.895 148.008C402.895 142.024 404.303 137.096 407.119 133.224C410.052 129.235 413.983 126.243 418.911 124.248C423.956 122.253 429.647 121.256 435.983 121.256H462.383V115.624C462.383 110.579 460.858 106.531 457.807 103.48C454.756 100.429 450.063 98.904 443.727 98.904C437.508 98.904 432.756 100.371 429.471 103.304C426.186 106.237 424.015 110.051 422.959 114.744L406.063 109.288C407.471 104.595 409.7 100.371 412.751 96.616C415.919 92.744 420.084 89.6347 425.247 87.288C430.41 84.9413 436.628 83.768 443.903 83.768C455.167 83.768 464.026 86.6427 470.479 92.392C476.932 98.1413 480.159 106.296 480.159 116.856V152.584C480.159 156.104 481.802 157.864 485.087 157.864H492.479V173H478.927C474.82 173 471.476 171.944 468.895 169.832C466.314 167.72 465.023 164.845 465.023 161.208V160.68H462.383C461.444 162.44 460.036 164.493 458.159 166.84C456.282 169.187 453.524 171.24 449.887 173C446.25 174.643 441.439 175.464 435.455 175.464ZM438.095 160.504C445.37 160.504 451.236 158.451 455.695 154.344C460.154 150.12 462.383 144.371 462.383 137.096V135.336H437.039C432.228 135.336 428.356 136.392 425.423 138.504C422.49 140.499 421.023 143.491 421.023 147.48C421.023 151.469 422.548 154.637 425.599 156.984C428.65 159.331 432.815 160.504 438.095 160.504Z" fill="url(#paint1_linear_1954_100)"/>
</g>
<defs>
<filter id="filter0_ddi_1954_100" x="131.647" y="37.7998" width="372.832" height="149.664" filterUnits="userSpaceOnUse" color-interpolation-filters="sRGB">
<feFlood flood-opacity="0" result="BackgroundImageFix"/>
<feColorMatrix in="SourceAlpha" type="matrix" values="0 0 0 0 0 0 0 0 0 0 0 0 0 0 0 0 0 0 127 0" result="hardAlpha"/>
<feOffset dx="2" dy="2"/>
<feGaussianBlur stdDeviation="5"/>
<feComposite in2="hardAlpha" operator="out"/>
<feColorMatrix type="matrix" values="0 0 0 0 0.321569 0 0 0 0 0.278431 0 0 0 0 0.439216 0 0 0 1 0"/>
<feBlend mode="normal" in2="BackgroundImageFix" result="effect1_dropShadow_1954_100"/>
<feColorMatrix in="SourceAlpha" type="matrix" values="0 0 0 0 0 0 0 0 0 0 0 0 0 0 0 0 0 0 127 0" result="hardAlpha"/>
<feOffset dx="-2" dy="-2"/>
<feGaussianBlur stdDeviation="5"/>
<feComposite in2="hardAlpha" operator="out"/>
<feColorMatrix type="matrix" values="0 0 0 0 0.458824 0 0 0 0 0.32549 0 0 0 0 0.286275 0 0 0 1 0"/>
<feBlend mode="normal" in2="effect1_dropShadow_1954_100" result="effect2_dropShadow_1954_100"/>
<feBlend mode="normal" in="SourceGraphic" in2="effect2_dropShadow_1954_100" result="shape"/>
<feColorMatrix in="SourceAlpha" type="matrix" values="0 0 0 0 0 0 0 0 0 0 0 0 0 0 0 0 0 0 127 0" result="hardAlpha"/>
<feOffset dx="2" dy="2"/>
<feGaussianBlur stdDeviation="10"/>
<feComposite in2="hardAlpha" operator="arithmetic" k2="-1" k3="1"/>
<feColorMatrix type="matrix" values="0 0 0 0 1 0 0 0 0 1 0 0 0 0 1 0 0 0 0.4 0"/>
<feBlend mode="normal" in2="shape" result="effect3_innerShadow_1954_100"/>
</filter>
<linearGradient id="paint0_linear_1954_100" x1="615" y1="-1.4385e-08" x2="614.697" y2="224.002" gradientUnits="userSpaceOnUse">
<stop stop-color="#47447B"/>
<stop offset="1" stop-color="#7A523E"/>
</linearGradient>
<linearGradient id="paint1_linear_1954_100" x1="314.11" y1="29" x2="313.7" y2="195" gradientUnits="userSpaceOnUse">
<stop stop-color="#47447B"/>
<stop offset="1" stop-color="#7A523E"/>
</linearGradient>
</defs>
</svg>
