<svg width="601" height="337" viewBox="0 0 601 337" fill="none" xmlns="http://www.w3.org/2000/svg">
<mask id="mask0_2737_86" style="mask-type:alpha" maskUnits="userSpaceOnUse" x="130" y="20" width="350" height="127">
<path d="M130.647 144V57.232H148.423V67.44H151.239C152.647 63.8027 154.876 61.1627 157.927 59.52C161.095 57.76 164.967 56.88 169.543 56.88H179.927V73.248H168.839C162.972 73.248 158.162 74.8907 154.407 78.176C150.652 81.344 148.775 86.272 148.775 92.96V144H130.647ZM229.232 146.464C220.549 146.464 212.805 144.704 206 141.184C199.312 137.547 194.032 132.384 190.16 125.696C186.288 119.008 184.352 111.088 184.352 101.936V99.296C184.352 90.144 186.288 82.2827 190.16 75.712C194.032 69.024 199.312 63.8613 206 60.224C212.805 56.5867 220.549 54.768 229.232 54.768C237.914 54.768 245.658 56.5867 252.464 60.224C259.269 63.8613 264.608 69.024 268.48 75.712C272.352 82.2827 274.288 90.144 274.288 99.296V101.936C274.288 111.088 272.352 119.008 268.48 125.696C264.608 132.384 259.269 137.547 252.464 141.184C245.658 144.704 237.914 146.464 229.232 146.464ZM229.232 130.272C237.21 130.272 243.664 127.749 248.592 122.704C253.637 117.541 256.16 110.443 256.16 101.408V99.824C256.16 90.7893 253.696 83.7493 248.768 78.704C243.84 73.5413 237.328 70.96 229.232 70.96C221.37 70.96 214.917 73.5413 209.872 78.704C204.944 83.7493 202.48 90.7893 202.48 99.824V101.408C202.48 110.443 204.944 117.541 209.872 122.704C214.917 127.749 221.37 130.272 229.232 130.272ZM339.977 146.464C331.529 146.464 325.017 144.939 320.441 141.888C315.982 138.837 312.638 135.435 310.409 131.68H307.593V144H289.817V20.8H307.945V69.024H310.761C312.169 66.6773 314.046 64.448 316.393 62.336C318.74 60.1067 321.849 58.288 325.721 56.88C329.593 55.472 334.345 54.768 339.977 54.768C347.252 54.768 353.94 56.528 360.041 60.048C366.142 63.568 371.012 68.672 374.649 75.36C378.286 82.048 380.105 90.0267 380.105 99.296V101.936C380.105 111.323 378.228 119.36 374.473 126.048C370.836 132.619 365.966 137.664 359.865 141.184C353.881 144.704 347.252 146.464 339.977 146.464ZM334.697 130.624C342.558 130.624 349.012 128.101 354.057 123.056C359.22 118.011 361.801 110.795 361.801 101.408V99.824C361.801 90.5547 359.278 83.3973 354.233 78.352C349.188 73.3067 342.676 70.784 334.697 70.784C326.953 70.784 320.5 73.3067 315.337 78.352C310.292 83.3973 307.769 90.5547 307.769 99.824V101.408C307.769 110.795 310.292 118.011 315.337 123.056C320.5 128.101 326.953 130.624 334.697 130.624ZM422.455 146.464C416.236 146.464 410.663 145.408 405.735 143.296C400.924 141.184 397.052 138.075 394.119 133.968C391.303 129.861 389.895 124.875 389.895 119.008C389.895 113.024 391.303 108.096 394.119 104.224C397.052 100.235 400.983 97.2427 405.911 95.248C410.956 93.2533 416.647 92.256 422.983 92.256H449.383V86.624C449.383 81.5787 447.858 77.5307 444.807 74.48C441.756 71.4293 437.063 69.904 430.727 69.904C424.508 69.904 419.756 71.3707 416.471 74.304C413.186 77.2373 411.015 81.0507 409.959 85.744L393.063 80.288C394.471 75.5947 396.7 71.3707 399.751 67.616C402.919 63.744 407.084 60.6347 412.247 58.288C417.41 55.9413 423.628 54.768 430.903 54.768C442.167 54.768 451.026 57.6427 457.479 63.392C463.932 69.1413 467.159 77.296 467.159 87.856V123.584C467.159 127.104 468.802 128.864 472.087 128.864H479.479V144H465.927C461.82 144 458.476 142.944 455.895 140.832C453.314 138.72 452.023 135.845 452.023 132.208V131.68H449.383C448.444 133.44 447.036 135.493 445.159 137.84C443.282 140.187 440.524 142.24 436.887 144C433.25 145.643 428.439 146.464 422.455 146.464ZM425.095 131.504C432.37 131.504 438.236 129.451 442.695 125.344C447.154 121.12 449.383 115.371 449.383 108.096V106.336H424.039C419.228 106.336 415.356 107.392 412.423 109.504C409.49 111.499 408.023 114.491 408.023 118.48C408.023 122.469 409.548 125.637 412.599 127.984C415.65 130.331 419.815 131.504 425.095 131.504Z" fill="white"/>
</mask>
<g mask="url(#mask0_2737_86)">
<g filter="url(#filter0_n_2737_86)">
<g filter="url(#filter1_f_2737_86)">
<path d="M137.966 -38.0005C137.966 -38.0005 234.55 66.5045 301.5 66.5045C368.449 66.5045 465.034 -38.0005 465.034 -38.0005V201C465.034 201 368.1 102.724 301.5 102.724C234.9 102.724 137.966 201 137.966 201V-38.0005Z" fill="#7352FF"/>
</g>
<g filter="url(#filter2_f_2737_86)">
<path d="M117.5 -38.0005C117.5 -38.0005 226.172 66.5045 301.5 66.5045C376.828 66.5045 485.5 -38.0005 485.5 -38.0005V201C485.5 201 376.435 102.724 301.5 102.724C226.565 102.724 117.5 201 117.5 201V-38.0005Z" fill="#AD8AFF"/>
</g>
<g filter="url(#filter3_f_2737_86)">
<path d="M143.758 12.9082C143.758 12.9082 236.922 72.8931 301.5 72.8931C366.078 72.8931 459.242 12.9082 459.242 12.9082V150.092C459.242 150.092 365.741 93.6826 301.5 93.6826C237.259 93.6826 143.758 150.092 143.758 150.092V12.9082Z" fill="#E8E4FF"/>
</g>
</g>
</g>
<path d="M40.6931 287.464C34.4744 287.464 28.9011 286.408 23.9731 284.296C19.1624 282.184 15.2904 279.075 12.3571 274.968C9.54107 270.861 8.13307 265.875 8.13307 260.008C8.13307 254.024 9.54107 249.096 12.3571 245.224C15.2904 241.235 19.2211 238.243 24.1491 236.248C29.1944 234.253 34.8851 233.256 41.2211 233.256H67.6211V227.624C67.6211 222.579 66.0957 218.531 63.0451 215.48C59.9944 212.429 55.3011 210.904 48.9651 210.904C42.7464 210.904 37.9944 212.371 34.7091 215.304C31.4237 218.237 29.2531 222.051 28.1971 226.744L11.3011 221.288C12.7091 216.595 14.9384 212.371 17.9891 208.616C21.1571 204.744 25.3224 201.635 30.4851 199.288C35.6477 196.941 41.8664 195.768 49.1411 195.768C60.4051 195.768 69.2637 198.643 75.7171 204.392C82.1704 210.141 85.3971 218.296 85.3971 228.856V264.584C85.3971 268.104 87.0397 269.864 90.3251 269.864H97.7171V285H84.1651C80.0584 285 76.7144 283.944 74.1331 281.832C71.5517 279.72 70.2611 276.845 70.2611 273.208V272.68H67.6211C66.6824 274.44 65.2744 276.493 63.3971 278.84C61.5197 281.187 58.7624 283.24 55.1251 285C51.4877 286.643 46.6771 287.464 40.6931 287.464ZM43.3331 272.504C50.6077 272.504 56.4744 270.451 60.9331 266.344C65.3917 262.12 67.6211 256.371 67.6211 249.096V247.336H42.2771C37.4664 247.336 33.5944 248.392 30.6611 250.504C27.7277 252.499 26.2611 255.491 26.2611 259.48C26.2611 263.469 27.7864 266.637 30.8371 268.984C33.8877 271.331 38.0531 272.504 43.3331 272.504ZM102.017 242.056V239.416C102.017 230.264 103.835 222.461 107.473 216.008C111.227 209.555 116.155 204.568 122.257 201.048C128.358 197.528 135.046 195.768 142.321 195.768C150.769 195.768 157.222 197.352 161.681 200.52C166.257 203.688 169.601 207.091 171.713 210.728H174.529V198.232H192.129V302.776C192.129 308.056 190.545 312.28 187.377 315.448C184.326 318.616 180.102 320.2 174.705 320.2H116.273V304.36H169.073C172.475 304.36 174.177 302.6 174.177 299.08V271.448H171.361C170.07 273.56 168.251 275.731 165.905 277.96C163.558 280.189 160.449 282.008 156.577 283.416C152.822 284.824 148.07 285.528 142.321 285.528C135.046 285.528 128.299 283.827 122.081 280.424C115.979 276.904 111.11 271.917 107.473 265.464C103.835 258.893 102.017 251.091 102.017 242.056ZM147.249 269.688C155.11 269.688 161.563 267.224 166.609 262.296C171.771 257.251 174.353 250.328 174.353 241.528V239.944C174.353 230.909 171.83 223.987 166.785 219.176C161.739 214.248 155.227 211.784 147.249 211.784C139.505 211.784 133.051 214.248 127.889 219.176C122.843 223.987 120.321 230.909 120.321 239.944V241.528C120.321 250.328 122.843 257.251 127.889 262.296C133.051 267.224 139.505 269.688 147.249 269.688ZM251.555 287.464C242.755 287.464 235.069 285.645 228.499 282.008C221.928 278.253 216.765 273.032 213.011 266.344C209.373 259.539 207.555 251.677 207.555 242.76V240.648C207.555 231.613 209.373 223.752 213.011 217.064C216.648 210.259 221.693 205.037 228.147 201.4C234.717 197.645 242.285 195.768 250.851 195.768C259.181 195.768 266.456 197.645 272.675 201.4C279.011 205.037 283.939 210.141 287.459 216.712C290.979 223.283 292.739 230.968 292.739 239.768V246.632H226.035C226.269 254.259 228.792 260.36 233.603 264.936C238.531 269.395 244.632 271.624 251.907 271.624C258.712 271.624 263.816 270.099 267.219 267.048C270.739 263.997 273.437 260.477 275.315 256.488L290.275 264.232C288.632 267.517 286.227 270.979 283.059 274.616C280.008 278.253 275.96 281.304 270.915 283.768C265.869 286.232 259.416 287.464 251.555 287.464ZM226.211 232.728H274.259C273.789 226.157 271.443 221.053 267.219 217.416C262.995 213.661 257.48 211.784 250.675 211.784C243.869 211.784 238.296 213.661 233.955 217.416C229.731 221.053 227.149 226.157 226.211 232.728ZM307.52 285V198.232H325.296V211.256H328.112C329.755 207.736 332.688 204.451 336.912 201.4C341.136 198.349 347.413 196.824 355.744 196.824C362.315 196.824 368.123 198.291 373.168 201.224C378.331 204.157 382.379 208.323 385.312 213.72C388.245 219 389.712 225.395 389.712 232.904V285H371.584V234.312C371.584 226.803 369.707 221.288 365.952 217.768C362.197 214.131 357.035 212.312 350.464 212.312C342.955 212.312 336.912 214.776 332.336 219.704C327.877 224.632 325.648 231.789 325.648 241.176V285H307.52ZM449.065 287.464C440.735 287.464 433.167 285.704 426.361 282.184C419.673 278.664 414.335 273.56 410.345 266.872C406.473 260.184 404.537 252.147 404.537 242.76V240.472C404.537 231.085 406.473 223.107 410.345 216.536C414.335 209.848 419.673 204.744 426.361 201.224C433.167 197.587 440.735 195.768 449.065 195.768C457.396 195.768 464.495 197.293 470.361 200.344C476.228 203.395 480.921 207.443 484.441 212.488C488.079 217.533 490.425 223.107 491.481 229.208L473.881 232.904C473.295 229.032 472.063 225.512 470.185 222.344C468.308 219.176 465.668 216.653 462.265 214.776C458.863 212.899 454.58 211.96 449.417 211.96C444.372 211.96 439.796 213.133 435.689 215.48C431.7 217.709 428.532 220.995 426.185 225.336C423.839 229.56 422.665 234.723 422.665 240.824V242.408C422.665 248.509 423.839 253.731 426.185 258.072C428.532 262.413 431.7 265.699 435.689 267.928C439.796 270.157 444.372 271.272 449.417 271.272C457.044 271.272 462.852 269.336 466.841 265.464C470.831 261.475 473.353 256.429 474.409 250.328L492.009 254.376C490.601 260.36 488.079 265.875 484.441 270.92C480.921 275.965 476.228 280.013 470.361 283.064C464.495 285.997 457.396 287.464 449.065 287.464ZM515.91 320.2V304.36H564.31C567.595 304.36 569.238 302.6 569.238 299.08V272.328H566.422C565.366 274.675 563.723 276.963 561.494 279.192C559.382 281.304 556.507 283.064 552.87 284.472C549.232 285.88 544.656 286.584 539.142 286.584C532.571 286.584 526.704 285.117 521.542 282.184C516.379 279.251 512.331 275.085 509.398 269.688C506.464 264.291 504.998 257.896 504.998 250.504V198.232H523.126V249.096C523.126 256.605 525.003 262.179 528.758 265.816C532.512 269.336 537.734 271.096 544.422 271.096C551.814 271.096 557.739 268.632 562.198 263.704C566.774 258.776 569.062 251.619 569.062 242.232V198.232H587.19V302.776C587.19 308.056 585.606 312.28 582.438 315.448C579.387 318.616 575.163 320.2 569.766 320.2H515.91Z" fill="white"/>
<defs>
<filter id="filter0_n_2737_86" x="117.5" y="-38.0005" width="368" height="239" filterUnits="userSpaceOnUse" color-interpolation-filters="sRGB">
<feFlood flood-opacity="0" result="BackgroundImageFix"/>
<feBlend mode="normal" in="SourceGraphic" in2="BackgroundImageFix" result="shape"/>
<feTurbulence type="fractalNoise" baseFrequency="3.3333332538604736 3.3333332538604736" stitchTiles="stitch" numOctaves="3" result="noise" seed="5616" />
<feColorMatrix in="noise" type="luminanceToAlpha" result="alphaNoise" />
<feComponentTransfer in="alphaNoise" result="coloredNoise1">
<feFuncA type="discrete" tableValues="0 0 1 1 1 1 1 1 1 1 1 1 1 1 1 1 1 1 1 1 1 1 1 1 1 1 1 1 1 1 1 1 1 1 1 1 1 1 1 1 1 1 1 1 1 1 1 1 0 0 0 0 0 0 0 0 0 0 0 0 0 0 0 0 0 0 0 0 0 0 0 0 0 0 0 0 0 0 0 0 0 0 0 0 0 0 0 0 0 0 0 0 0 0 0 0 0 0 0 0 "/>
</feComponentTransfer>
<feComposite operator="in" in2="shape" in="coloredNoise1" result="noise1Clipped" />
<feFlood flood-color="rgba(255, 255, 255, 0.25)" result="color1Flood" />
<feComposite operator="in" in2="noise1Clipped" in="color1Flood" result="color1" />
<feMerge result="effect1_noise_2737_86">
<feMergeNode in="shape" />
<feMergeNode in="color1" />
</feMerge>
</filter>
<filter id="filter1_f_2737_86" x="17.9658" y="-158" width="567.068" height="479" filterUnits="userSpaceOnUse" color-interpolation-filters="sRGB">
<feFlood flood-opacity="0" result="BackgroundImageFix"/>
<feBlend mode="normal" in="SourceGraphic" in2="BackgroundImageFix" result="shape"/>
<feGaussianBlur stdDeviation="60" result="effect1_foregroundBlur_2737_86"/>
</filter>
<filter id="filter2_f_2737_86" x="77.5" y="-78.0005" width="448" height="319" filterUnits="userSpaceOnUse" color-interpolation-filters="sRGB">
<feFlood flood-opacity="0" result="BackgroundImageFix"/>
<feBlend mode="normal" in="SourceGraphic" in2="BackgroundImageFix" result="shape"/>
<feGaussianBlur stdDeviation="20" result="effect1_foregroundBlur_2737_86"/>
</filter>
<filter id="filter3_f_2737_86" x="119.758" y="-11.0918" width="363.484" height="185.184" filterUnits="userSpaceOnUse" color-interpolation-filters="sRGB">
<feFlood flood-opacity="0" result="BackgroundImageFix"/>
<feBlend mode="normal" in="SourceGraphic" in2="BackgroundImageFix" result="shape"/>
<feGaussianBlur stdDeviation="12" result="effect1_foregroundBlur_2737_86"/>
</filter>
</defs>
</svg>
