<svg width="996" height="225" viewBox="0 0 996 225" fill="none" xmlns="http://www.w3.org/2000/svg">
<mask id="mask0_2418_107" style="mask-type:alpha" maskUnits="userSpaceOnUse" x="15" y="49" width="349" height="127">
<path d="M15.1469 173V86.232H32.9229V96.44H35.7389C37.1469 92.8027 39.3763 90.1627 42.4269 88.52C45.5949 86.76 49.4669 85.88 54.0429 85.88H64.4269V102.248H53.3389C47.4723 102.248 42.6616 103.891 38.9069 107.176C35.1523 110.344 33.2749 115.272 33.2749 121.96V173H15.1469ZM113.732 175.464C105.049 175.464 97.305 173.704 90.4997 170.184C83.8117 166.547 78.5317 161.384 74.6597 154.696C70.7877 148.008 68.8517 140.088 68.8517 130.936V128.296C68.8517 119.144 70.7877 111.283 74.6597 104.712C78.5317 98.024 83.8117 92.8613 90.4997 89.224C97.305 85.5867 105.049 83.768 113.732 83.768C122.414 83.768 130.158 85.5867 136.964 89.224C143.769 92.8613 149.108 98.024 152.98 104.712C156.852 111.283 158.788 119.144 158.788 128.296V130.936C158.788 140.088 156.852 148.008 152.98 154.696C149.108 161.384 143.769 166.547 136.964 170.184C130.158 173.704 122.414 175.464 113.732 175.464ZM113.732 159.272C121.71 159.272 128.164 156.749 133.092 151.704C138.137 146.541 140.66 139.443 140.66 130.408V128.824C140.66 119.789 138.196 112.749 133.268 107.704C128.34 102.541 121.828 99.96 113.732 99.96C105.87 99.96 99.417 102.541 94.3717 107.704C89.4437 112.749 86.9797 119.789 86.9797 128.824V130.408C86.9797 139.443 89.4437 146.541 94.3717 151.704C99.417 156.749 105.87 159.272 113.732 159.272ZM224.477 175.464C216.029 175.464 209.517 173.939 204.941 170.888C200.482 167.837 197.138 164.435 194.909 160.68H192.093V173H174.317V49.8H192.445V98.024H195.261C196.669 95.6773 198.546 93.448 200.893 91.336C203.24 89.1067 206.349 87.288 210.221 85.88C214.093 84.472 218.845 83.768 224.477 83.768C231.752 83.768 238.44 85.528 244.541 89.048C250.642 92.568 255.512 97.672 259.149 104.36C262.786 111.048 264.605 119.027 264.605 128.296V130.936C264.605 140.323 262.728 148.36 258.973 155.048C255.336 161.619 250.466 166.664 244.365 170.184C238.381 173.704 231.752 175.464 224.477 175.464ZM219.197 159.624C227.058 159.624 233.512 157.101 238.557 152.056C243.72 147.011 246.301 139.795 246.301 130.408V128.824C246.301 119.555 243.778 112.397 238.733 107.352C233.688 102.307 227.176 99.784 219.197 99.784C211.453 99.784 205 102.307 199.837 107.352C194.792 112.397 192.269 119.555 192.269 128.824V130.408C192.269 139.795 194.792 147.011 199.837 152.056C205 157.101 211.453 159.624 219.197 159.624ZM306.955 175.464C300.736 175.464 295.163 174.408 290.235 172.296C285.424 170.184 281.552 167.075 278.619 162.968C275.803 158.861 274.395 153.875 274.395 148.008C274.395 142.024 275.803 137.096 278.619 133.224C281.552 129.235 285.483 126.243 290.411 124.248C295.456 122.253 301.147 121.256 307.483 121.256H333.883V115.624C333.883 110.579 332.358 106.531 329.307 103.48C326.256 100.429 321.563 98.904 315.227 98.904C309.008 98.904 304.256 100.371 300.971 103.304C297.686 106.237 295.515 110.051 294.459 114.744L277.563 109.288C278.971 104.595 281.2 100.371 284.251 96.616C287.419 92.744 291.584 89.6347 296.747 87.288C301.91 84.9413 308.128 83.768 315.403 83.768C326.667 83.768 335.526 86.6427 341.979 92.392C348.432 98.1413 351.659 106.296 351.659 116.856V152.584C351.659 156.104 353.302 157.864 356.587 157.864H363.979V173H350.427C346.32 173 342.976 171.944 340.395 169.832C337.814 167.72 336.523 164.845 336.523 161.208V160.68H333.883C332.944 162.44 331.536 164.493 329.659 166.84C327.782 169.187 325.024 171.24 321.387 173C317.75 174.643 312.939 175.464 306.955 175.464ZM309.595 160.504C316.87 160.504 322.736 158.451 327.195 154.344C331.654 150.12 333.883 144.371 333.883 137.096V135.336H308.539C303.728 135.336 299.856 136.392 296.923 138.504C293.99 140.499 292.523 143.491 292.523 147.48C292.523 151.469 294.048 154.637 297.099 156.984C300.15 159.331 304.315 160.504 309.595 160.504Z" fill="white"/>
</mask>
<g mask="url(#mask0_2418_107)">
<g filter="url(#filter0_n_2418_107)">
<g filter="url(#filter1_f_2418_107)">
<path d="M22.4659 -9.00049C22.4659 -9.00049 119.05 95.5045 186 95.5045C252.95 95.5045 349.534 -9.00049 349.534 -9.00049V230C349.534 230 252.6 131.724 186 131.724C119.4 131.724 22.4659 230 22.4659 230V-9.00049Z" fill="#7352FF"/>
</g>
<g filter="url(#filter2_f_2418_107)">
<path d="M2 -9.00049C2 -9.00049 110.672 95.5045 186 95.5045C261.328 95.5045 370 -9.00049 370 -9.00049V230C370 230 260.935 131.724 186 131.724C111.065 131.724 2 230 2 230V-9.00049Z" fill="#AD8AFF"/>
</g>
<g filter="url(#filter3_f_2418_107)">
<path d="M28.2581 41.9082C28.2581 41.9082 121.422 101.893 186 101.893C250.578 101.893 343.742 41.9082 343.742 41.9082V179.092C343.742 179.092 250.241 122.683 186 122.683C121.759 122.683 28.2581 179.092 28.2581 179.092V41.9082Z" fill="#E8E4FF"/>
</g>
</g>
</g>
<path d="M435.693 175.464C429.474 175.464 423.901 174.408 418.973 172.296C414.162 170.184 410.29 167.075 407.357 162.968C404.541 158.861 403.133 153.875 403.133 148.008C403.133 142.024 404.541 137.096 407.357 133.224C410.29 129.235 414.221 126.243 419.149 124.248C424.194 122.253 429.885 121.256 436.221 121.256H462.621V115.624C462.621 110.579 461.096 106.531 458.045 103.48C454.994 100.429 450.301 98.904 443.965 98.904C437.746 98.904 432.994 100.371 429.709 103.304C426.424 106.237 424.253 110.051 423.197 114.744L406.301 109.288C407.709 104.595 409.938 100.371 412.989 96.616C416.157 92.744 420.322 89.6347 425.485 87.288C430.648 84.9413 436.866 83.768 444.141 83.768C455.405 83.768 464.264 86.6427 470.717 92.392C477.17 98.1413 480.397 106.296 480.397 116.856V152.584C480.397 156.104 482.04 157.864 485.325 157.864H492.717V173H479.165C475.058 173 471.714 171.944 469.133 169.832C466.552 167.72 465.261 164.845 465.261 161.208V160.68H462.621C461.682 162.44 460.274 164.493 458.397 166.84C456.52 169.187 453.762 171.24 450.125 173C446.488 174.643 441.677 175.464 435.693 175.464ZM438.333 160.504C445.608 160.504 451.474 158.451 455.933 154.344C460.392 150.12 462.621 144.371 462.621 137.096V135.336H437.277C432.466 135.336 428.594 136.392 425.661 138.504C422.728 140.499 421.261 143.491 421.261 147.48C421.261 151.469 422.786 154.637 425.837 156.984C428.888 159.331 433.053 160.504 438.333 160.504ZM497.017 130.056V127.416C497.017 118.264 498.835 110.461 502.473 104.008C506.227 97.5547 511.155 92.568 517.257 89.048C523.358 85.528 530.046 83.768 537.321 83.768C545.769 83.768 552.222 85.352 556.681 88.52C561.257 91.688 564.601 95.0907 566.713 98.728H569.529V86.232H587.129V190.776C587.129 196.056 585.545 200.28 582.377 203.448C579.326 206.616 575.102 208.2 569.705 208.2H511.273V192.36H564.073C567.475 192.36 569.177 190.6 569.177 187.08V159.448H566.361C565.07 161.56 563.251 163.731 560.905 165.96C558.558 168.189 555.449 170.008 551.577 171.416C547.822 172.824 543.07 173.528 537.321 173.528C530.046 173.528 523.299 171.827 517.081 168.424C510.979 164.904 506.11 159.917 502.473 153.464C498.835 146.893 497.017 139.091 497.017 130.056ZM542.249 157.688C550.11 157.688 556.563 155.224 561.609 150.296C566.771 145.251 569.353 138.328 569.353 129.528V127.944C569.353 118.909 566.83 111.987 561.785 107.176C556.739 102.248 550.227 99.784 542.249 99.784C534.505 99.784 528.051 102.248 522.889 107.176C517.843 111.987 515.321 118.909 515.321 127.944V129.528C515.321 138.328 517.843 145.251 522.889 150.296C528.051 155.224 534.505 157.688 542.249 157.688ZM646.555 175.464C637.755 175.464 630.069 173.645 623.499 170.008C616.928 166.253 611.765 161.032 608.011 154.344C604.373 147.539 602.555 139.677 602.555 130.76V128.648C602.555 119.613 604.373 111.752 608.011 105.064C611.648 98.2587 616.693 93.0373 623.147 89.4C629.717 85.6453 637.285 83.768 645.851 83.768C654.181 83.768 661.456 85.6453 667.675 89.4C674.011 93.0373 678.939 98.1413 682.459 104.712C685.979 111.283 687.739 118.968 687.739 127.768V134.632H621.035C621.269 142.259 623.792 148.36 628.603 152.936C633.531 157.395 639.632 159.624 646.907 159.624C653.712 159.624 658.816 158.099 662.219 155.048C665.739 151.997 668.437 148.477 670.315 144.488L685.275 152.232C683.632 155.517 681.227 158.979 678.059 162.616C675.008 166.253 670.96 169.304 665.915 171.768C660.869 174.232 654.416 175.464 646.555 175.464ZM621.211 120.728H669.259C668.789 114.157 666.443 109.053 662.219 105.416C657.995 101.661 652.48 99.784 645.675 99.784C638.869 99.784 633.296 101.661 628.955 105.416C624.731 109.053 622.149 114.157 621.211 120.728ZM702.52 173V86.232H720.296V99.256H723.112C724.755 95.736 727.688 92.4507 731.912 89.4C736.136 86.3493 742.413 84.824 750.744 84.824C757.315 84.824 763.123 86.2907 768.168 89.224C773.331 92.1573 777.379 96.3227 780.312 101.72C783.245 107 784.712 113.395 784.712 120.904V173H766.584V122.312C766.584 114.803 764.707 109.288 760.952 105.768C757.197 102.131 752.035 100.312 745.464 100.312C737.955 100.312 731.912 102.776 727.336 107.704C722.877 112.632 720.648 119.789 720.648 129.176V173H702.52ZM844.065 175.464C835.735 175.464 828.167 173.704 821.361 170.184C814.673 166.664 809.335 161.56 805.345 154.872C801.473 148.184 799.537 140.147 799.537 130.76V128.472C799.537 119.085 801.473 111.107 805.345 104.536C809.335 97.848 814.673 92.744 821.361 89.224C828.167 85.5867 835.735 83.768 844.065 83.768C852.396 83.768 859.495 85.2933 865.361 88.344C871.228 91.3947 875.921 95.4427 879.441 100.488C883.079 105.533 885.425 111.107 886.481 117.208L868.881 120.904C868.295 117.032 867.063 113.512 865.185 110.344C863.308 107.176 860.668 104.653 857.265 102.776C853.863 100.899 849.58 99.96 844.417 99.96C839.372 99.96 834.796 101.133 830.689 103.48C826.7 105.709 823.532 108.995 821.185 113.336C818.839 117.56 817.665 122.723 817.665 128.824V130.408C817.665 136.509 818.839 141.731 821.185 146.072C823.532 150.413 826.7 153.699 830.689 155.928C834.796 158.157 839.372 159.272 844.417 159.272C852.044 159.272 857.852 157.336 861.841 153.464C865.831 149.475 868.353 144.429 869.409 138.328L887.009 142.376C885.601 148.36 883.079 153.875 879.441 158.92C875.921 163.965 871.228 168.013 865.361 171.064C859.495 173.997 852.396 175.464 844.065 175.464ZM910.91 208.2V192.36H959.31C962.595 192.36 964.238 190.6 964.238 187.08V160.328H961.422C960.366 162.675 958.723 164.963 956.494 167.192C954.382 169.304 951.507 171.064 947.87 172.472C944.232 173.88 939.656 174.584 934.142 174.584C927.571 174.584 921.704 173.117 916.542 170.184C911.379 167.251 907.331 163.085 904.398 157.688C901.464 152.291 899.998 145.896 899.998 138.504V86.232H918.126V137.096C918.126 144.605 920.003 150.179 923.758 153.816C927.512 157.336 932.734 159.096 939.422 159.096C946.814 159.096 952.739 156.632 957.198 151.704C961.774 146.776 964.062 139.619 964.062 130.232V86.232H982.19V190.776C982.19 196.056 980.606 200.28 977.438 203.448C974.387 206.616 970.163 208.2 964.766 208.2H910.91Z" fill="white"/>
<defs>
<filter id="filter0_n_2418_107" x="2" y="-9.00049" width="368" height="239" filterUnits="userSpaceOnUse" color-interpolation-filters="sRGB">
<feFlood flood-opacity="0" result="BackgroundImageFix"/>
<feBlend mode="normal" in="SourceGraphic" in2="BackgroundImageFix" result="shape"/>
<feTurbulence type="fractalNoise" baseFrequency="3.3333332538604736 3.3333332538604736" stitchTiles="stitch" numOctaves="3" result="noise" seed="5616" />
<feColorMatrix in="noise" type="luminanceToAlpha" result="alphaNoise" />
<feComponentTransfer in="alphaNoise" result="coloredNoise1">
<feFuncA type="discrete" tableValues="0 0 1 1 1 1 1 1 1 1 1 1 1 1 1 1 1 1 1 1 1 1 1 1 1 1 1 1 1 1 1 1 1 1 1 1 1 1 1 1 1 1 1 1 1 1 1 1 0 0 0 0 0 0 0 0 0 0 0 0 0 0 0 0 0 0 0 0 0 0 0 0 0 0 0 0 0 0 0 0 0 0 0 0 0 0 0 0 0 0 0 0 0 0 0 0 0 0 0 0 "/>
</feComponentTransfer>
<feComposite operator="in" in2="shape" in="coloredNoise1" result="noise1Clipped" />
<feFlood flood-color="rgba(255, 255, 255, 0.25)" result="color1Flood" />
<feComposite operator="in" in2="noise1Clipped" in="color1Flood" result="color1" />
<feMerge result="effect1_noise_2418_107">
<feMergeNode in="shape" />
<feMergeNode in="color1" />
</feMerge>
</filter>
<filter id="filter1_f_2418_107" x="-97.5341" y="-129" width="567.068" height="479" filterUnits="userSpaceOnUse" color-interpolation-filters="sRGB">
<feFlood flood-opacity="0" result="BackgroundImageFix"/>
<feBlend mode="normal" in="SourceGraphic" in2="BackgroundImageFix" result="shape"/>
<feGaussianBlur stdDeviation="60" result="effect1_foregroundBlur_2418_107"/>
</filter>
<filter id="filter2_f_2418_107" x="-38" y="-49.0005" width="448" height="319" filterUnits="userSpaceOnUse" color-interpolation-filters="sRGB">
<feFlood flood-opacity="0" result="BackgroundImageFix"/>
<feBlend mode="normal" in="SourceGraphic" in2="BackgroundImageFix" result="shape"/>
<feGaussianBlur stdDeviation="20" result="effect1_foregroundBlur_2418_107"/>
</filter>
<filter id="filter3_f_2418_107" x="4.25815" y="17.9082" width="363.484" height="185.184" filterUnits="userSpaceOnUse" color-interpolation-filters="sRGB">
<feFlood flood-opacity="0" result="BackgroundImageFix"/>
<feBlend mode="normal" in="SourceGraphic" in2="BackgroundImageFix" result="shape"/>
<feGaussianBlur stdDeviation="12" result="effect1_foregroundBlur_2418_107"/>
</filter>
</defs>
</svg>
