<svg width="624" height="323" viewBox="0 0 624 323" fill="none" xmlns="http://www.w3.org/2000/svg">
<g filter="url(#filter0_ddi_1959_97)">
<path d="M142.147 135.5V48.732H159.923V58.94H162.739C164.147 55.3027 166.376 52.6627 169.427 51.02C172.595 49.26 176.467 48.38 181.043 48.38H191.427V64.748H180.339C174.472 64.748 169.662 66.3907 165.907 69.676C162.152 72.844 160.275 77.772 160.275 84.46V135.5H142.147ZM240.732 137.964C232.049 137.964 224.305 136.204 217.5 132.684C210.812 129.047 205.532 123.884 201.66 117.196C197.788 110.508 195.852 102.588 195.852 93.436V90.796C195.852 81.644 197.788 73.7827 201.66 67.212C205.532 60.524 210.812 55.3613 217.5 51.724C224.305 48.0867 232.049 46.268 240.732 46.268C249.414 46.268 257.158 48.0867 263.964 51.724C270.769 55.3613 276.108 60.524 279.98 67.212C283.852 73.7827 285.788 81.644 285.788 90.796V93.436C285.788 102.588 283.852 110.508 279.98 117.196C276.108 123.884 270.769 129.047 263.964 132.684C257.158 136.204 249.414 137.964 240.732 137.964ZM240.732 121.772C248.71 121.772 255.164 119.249 260.092 114.204C265.137 109.041 267.66 101.943 267.66 92.908V91.324C267.66 82.2893 265.196 75.2493 260.268 70.204C255.34 65.0413 248.828 62.46 240.732 62.46C232.87 62.46 226.417 65.0413 221.372 70.204C216.444 75.2493 213.98 82.2893 213.98 91.324V92.908C213.98 101.943 216.444 109.041 221.372 114.204C226.417 119.249 232.87 121.772 240.732 121.772ZM351.477 137.964C343.029 137.964 336.517 136.439 331.941 133.388C327.482 130.337 324.138 126.935 321.909 123.18H319.093V135.5H301.317V12.3H319.445V60.524H322.261C323.669 58.1773 325.546 55.948 327.893 53.836C330.24 51.6067 333.349 49.788 337.221 48.38C341.093 46.972 345.845 46.268 351.477 46.268C358.752 46.268 365.44 48.028 371.541 51.548C377.642 55.068 382.512 60.172 386.149 66.86C389.786 73.548 391.605 81.5267 391.605 90.796V93.436C391.605 102.823 389.728 110.86 385.973 117.548C382.336 124.119 377.466 129.164 371.365 132.684C365.381 136.204 358.752 137.964 351.477 137.964ZM346.197 122.124C354.058 122.124 360.512 119.601 365.557 114.556C370.72 109.511 373.301 102.295 373.301 92.908V91.324C373.301 82.0547 370.778 74.8973 365.733 69.852C360.688 64.8067 354.176 62.284 346.197 62.284C338.453 62.284 332 64.8067 326.837 69.852C321.792 74.8973 319.269 82.0547 319.269 91.324V92.908C319.269 102.295 321.792 109.511 326.837 114.556C332 119.601 338.453 122.124 346.197 122.124ZM433.955 137.964C427.736 137.964 422.163 136.908 417.235 134.796C412.424 132.684 408.552 129.575 405.619 125.468C402.803 121.361 401.395 116.375 401.395 110.508C401.395 104.524 402.803 99.596 405.619 95.724C408.552 91.7347 412.483 88.7427 417.411 86.748C422.456 84.7533 428.147 83.756 434.483 83.756H460.883V78.124C460.883 73.0787 459.358 69.0307 456.307 65.98C453.256 62.9293 448.563 61.404 442.227 61.404C436.008 61.404 431.256 62.8707 427.971 65.804C424.686 68.7373 422.515 72.5507 421.459 77.244L404.563 71.788C405.971 67.0947 408.2 62.8707 411.251 59.116C414.419 55.244 418.584 52.1347 423.747 49.788C428.91 47.4413 435.128 46.268 442.403 46.268C453.667 46.268 462.526 49.1427 468.979 54.892C475.432 60.6413 478.659 68.796 478.659 79.356V115.084C478.659 118.604 480.302 120.364 483.587 120.364H490.979V135.5H477.427C473.32 135.5 469.976 134.444 467.395 132.332C464.814 130.22 463.523 127.345 463.523 123.708V123.18H460.883C459.944 124.94 458.536 126.993 456.659 129.34C454.782 131.687 452.024 133.74 448.387 135.5C444.75 137.143 439.939 137.964 433.955 137.964ZM436.595 123.004C443.87 123.004 449.736 120.951 454.195 116.844C458.654 112.62 460.883 106.871 460.883 99.596V97.836H435.539C430.728 97.836 426.856 98.892 423.923 101.004C420.99 102.999 419.523 105.991 419.523 109.98C419.523 113.969 421.048 117.137 424.099 119.484C427.15 121.831 431.315 123.004 436.595 123.004Z" fill="url(#paint0_linear_1959_97)"/>
</g>
<path d="M65.3931 282.964C59.1744 282.964 53.6011 281.908 48.6731 279.796C43.8624 277.684 39.9904 274.575 37.0571 270.468C34.2411 266.361 32.8331 261.375 32.8331 255.508C32.8331 249.524 34.2411 244.596 37.0571 240.724C39.9904 236.735 43.9211 233.743 48.8491 231.748C53.8944 229.753 59.5851 228.756 65.9211 228.756H92.3211V223.124C92.3211 218.079 90.7957 214.031 87.7451 210.98C84.6944 207.929 80.0011 206.404 73.6651 206.404C67.4464 206.404 62.6944 207.871 59.4091 210.804C56.1237 213.737 53.9531 217.551 52.8971 222.244L36.0011 216.788C37.4091 212.095 39.6384 207.871 42.6891 204.116C45.8571 200.244 50.0224 197.135 55.1851 194.788C60.3477 192.441 66.5664 191.268 73.8411 191.268C85.1051 191.268 93.9637 194.143 100.417 199.892C106.87 205.641 110.097 213.796 110.097 224.356V260.084C110.097 263.604 111.74 265.364 115.025 265.364H122.417V280.5H108.865C104.758 280.5 101.414 279.444 98.8331 277.332C96.2517 275.22 94.9611 272.345 94.9611 268.708V268.18H92.3211C91.3824 269.94 89.9744 271.993 88.0971 274.34C86.2197 276.687 83.4624 278.74 79.8251 280.5C76.1877 282.143 71.3771 282.964 65.3931 282.964ZM68.0331 268.004C75.3077 268.004 81.1744 265.951 85.6331 261.844C90.0917 257.62 92.3211 251.871 92.3211 244.596V242.836H66.9771C62.1664 242.836 58.2944 243.892 55.3611 246.004C52.4277 247.999 50.9611 250.991 50.9611 254.98C50.9611 258.969 52.4864 262.137 55.5371 264.484C58.5877 266.831 62.7531 268.004 68.0331 268.004ZM121.437 237.556V234.916C121.437 225.764 123.255 217.961 126.893 211.508C130.647 205.055 135.575 200.068 141.677 196.548C147.778 193.028 154.466 191.268 161.741 191.268C170.189 191.268 176.642 192.852 181.101 196.02C185.677 199.188 189.021 202.591 191.133 206.228H193.949V193.732H211.549V298.276C211.549 303.556 209.965 307.78 206.797 310.948C203.746 314.116 199.522 315.7 194.125 315.7H135.693V299.86H188.493C191.895 299.86 193.597 298.1 193.597 294.58V266.948H190.781C189.49 269.06 187.671 271.231 185.325 273.46C182.978 275.689 179.869 277.508 175.997 278.916C172.242 280.324 167.49 281.028 161.741 281.028C154.466 281.028 147.719 279.327 141.501 275.924C135.399 272.404 130.53 267.417 126.893 260.964C123.255 254.393 121.437 246.591 121.437 237.556ZM166.669 265.188C174.53 265.188 180.983 262.724 186.029 257.796C191.191 252.751 193.773 245.828 193.773 237.028V235.444C193.773 226.409 191.25 219.487 186.205 214.676C181.159 209.748 174.647 207.284 166.669 207.284C158.925 207.284 152.471 209.748 147.309 214.676C142.263 219.487 139.741 226.409 139.741 235.444V237.028C139.741 245.828 142.263 252.751 147.309 257.796C152.471 262.724 158.925 265.188 166.669 265.188ZM265.695 282.964C256.895 282.964 249.209 281.145 242.639 277.508C236.068 273.753 230.905 268.532 227.151 261.844C223.513 255.039 221.695 247.177 221.695 238.26V236.148C221.695 227.113 223.513 219.252 227.151 212.564C230.788 205.759 235.833 200.537 242.287 196.9C248.857 193.145 256.425 191.268 264.991 191.268C273.321 191.268 280.596 193.145 286.815 196.9C293.151 200.537 298.079 205.641 301.599 212.212C305.119 218.783 306.879 226.468 306.879 235.268V242.132H240.175C240.409 249.759 242.932 255.86 247.743 260.436C252.671 264.895 258.772 267.124 266.047 267.124C272.852 267.124 277.956 265.599 281.359 262.548C284.879 259.497 287.577 255.977 289.455 251.988L304.415 259.732C302.772 263.017 300.367 266.479 297.199 270.116C294.148 273.753 290.1 276.804 285.055 279.268C280.009 281.732 273.556 282.964 265.695 282.964ZM240.351 228.228H288.399C287.929 221.657 285.583 216.553 281.359 212.916C277.135 209.161 271.62 207.284 264.815 207.284C258.009 207.284 252.436 209.161 248.095 212.916C243.871 216.553 241.289 221.657 240.351 228.228ZM316.38 280.5V193.732H334.156V206.756H336.972C338.615 203.236 341.548 199.951 345.772 196.9C349.996 193.849 356.273 192.324 364.604 192.324C371.175 192.324 376.983 193.791 382.028 196.724C387.191 199.657 391.239 203.823 394.172 209.22C397.105 214.5 398.572 220.895 398.572 228.404V280.5H380.444V229.812C380.444 222.303 378.567 216.788 374.812 213.268C371.057 209.631 365.895 207.812 359.324 207.812C351.815 207.812 345.772 210.276 341.196 215.204C336.737 220.132 334.508 227.289 334.508 236.676V280.5H316.38ZM452.645 282.964C444.315 282.964 436.747 281.204 429.941 277.684C423.253 274.164 417.915 269.06 413.925 262.372C410.053 255.684 408.117 247.647 408.117 238.26V235.972C408.117 226.585 410.053 218.607 413.925 212.036C417.915 205.348 423.253 200.244 429.941 196.724C436.747 193.087 444.315 191.268 452.645 191.268C460.976 191.268 468.075 192.793 473.941 195.844C479.808 198.895 484.501 202.943 488.021 207.988C491.659 213.033 494.005 218.607 495.061 224.708L477.461 228.404C476.875 224.532 475.643 221.012 473.765 217.844C471.888 214.676 469.248 212.153 465.845 210.276C462.443 208.399 458.16 207.46 452.997 207.46C447.952 207.46 443.376 208.633 439.269 210.98C435.28 213.209 432.112 216.495 429.765 220.836C427.419 225.06 426.245 230.223 426.245 236.324V237.908C426.245 244.009 427.419 249.231 429.765 253.572C432.112 257.913 435.28 261.199 439.269 263.428C443.376 265.657 447.952 266.772 452.997 266.772C460.624 266.772 466.432 264.836 470.421 260.964C474.411 256.975 476.933 251.929 477.989 245.828L495.589 249.876C494.181 255.86 491.659 261.375 488.021 266.42C484.501 271.465 479.808 275.513 473.941 278.564C468.075 281.497 460.976 282.964 452.645 282.964ZM514.21 315.7V299.86H562.61C565.895 299.86 567.538 298.1 567.538 294.58V267.828H564.722C563.666 270.175 562.023 272.463 559.794 274.692C557.682 276.804 554.807 278.564 551.17 279.972C547.532 281.38 542.956 282.084 537.442 282.084C530.871 282.084 525.004 280.617 519.842 277.684C514.679 274.751 510.631 270.585 507.698 265.188C504.764 259.791 503.298 253.396 503.298 246.004V193.732H521.426V244.596C521.426 252.105 523.303 257.679 527.058 261.316C530.812 264.836 536.034 266.596 542.722 266.596C550.114 266.596 556.039 264.132 560.498 259.204C565.074 254.276 567.362 247.119 567.362 237.732V193.732H585.49V298.276C585.49 303.556 583.906 307.78 580.738 310.948C577.687 314.116 573.463 315.7 568.066 315.7H514.21Z" fill="white"/>
<defs>
<filter id="filter0_ddi_1959_97" x="130.147" y="0.299805" width="372.832" height="149.664" filterUnits="userSpaceOnUse" color-interpolation-filters="sRGB">
<feFlood flood-opacity="0" result="BackgroundImageFix"/>
<feColorMatrix in="SourceAlpha" type="matrix" values="0 0 0 0 0 0 0 0 0 0 0 0 0 0 0 0 0 0 127 0" result="hardAlpha"/>
<feOffset dx="2" dy="2"/>
<feGaussianBlur stdDeviation="5"/>
<feComposite in2="hardAlpha" operator="out"/>
<feColorMatrix type="matrix" values="0 0 0 0 0.321569 0 0 0 0 0.278431 0 0 0 0 0.439216 0 0 0 1 0"/>
<feBlend mode="normal" in2="BackgroundImageFix" result="effect1_dropShadow_1959_97"/>
<feColorMatrix in="SourceAlpha" type="matrix" values="0 0 0 0 0 0 0 0 0 0 0 0 0 0 0 0 0 0 127 0" result="hardAlpha"/>
<feOffset dx="-2" dy="-2"/>
<feGaussianBlur stdDeviation="5"/>
<feComposite in2="hardAlpha" operator="out"/>
<feColorMatrix type="matrix" values="0 0 0 0 0.458824 0 0 0 0 0.32549 0 0 0 0 0.286275 0 0 0 1 0"/>
<feBlend mode="normal" in2="effect1_dropShadow_1959_97" result="effect2_dropShadow_1959_97"/>
<feBlend mode="normal" in="SourceGraphic" in2="effect2_dropShadow_1959_97" result="shape"/>
<feColorMatrix in="SourceAlpha" type="matrix" values="0 0 0 0 0 0 0 0 0 0 0 0 0 0 0 0 0 0 127 0" result="hardAlpha"/>
<feOffset dx="2" dy="2"/>
<feGaussianBlur stdDeviation="10"/>
<feComposite in2="hardAlpha" operator="arithmetic" k2="-1" k3="1"/>
<feColorMatrix type="matrix" values="0 0 0 0 1 0 0 0 0 1 0 0 0 0 1 0 0 0 0.4 0"/>
<feBlend mode="normal" in2="shape" result="effect3_innerShadow_1959_97"/>
</filter>
<linearGradient id="paint0_linear_1959_97" x1="312.61" y1="-8.5" x2="312.2" y2="157.5" gradientUnits="userSpaceOnUse">
<stop stop-color="#47447B"/>
<stop offset="1" stop-color="#7A523E"/>
</linearGradient>
</defs>
</svg>
